<svg width="53" height="66" viewBox="0 0 53 66" fill="none" xmlns="http://www.w3.org/2000/svg">
<path d="M5.22319 12.406L7.2971 21.1857L5.22319 29.9271L12.9428 34.6605L17.6667 42.3331L26.5 40.2718L35.3333 42.3331L40.0573 34.6605L47.7768 29.9271L45.7029 21.1857L47.7768 12.406L40.0957 7.67264L35.3333 0L26.5 2.09948L17.7051 0.0381723L12.9043 7.67264L5.22319 12.406ZM26.5384 36.6073C22.4641 36.6073 18.5566 34.9986 15.6756 32.1351C12.7946 29.2716 11.1761 25.3879 11.1761 21.3383C11.1761 17.2888 12.7946 13.4051 15.6756 10.5416C18.5566 7.67809 22.4641 6.0694 26.5384 6.0694C34.9877 6.0694 41.8623 12.9023 41.8623 21.3002C41.8623 29.7744 34.9877 36.6073 26.5384 36.6073ZM26.4616 32.7901C20.0862 32.7901 14.9783 27.675 14.9783 21.3383C14.9783 15.0399 20.0862 9.88664 26.4616 9.88664C32.837 9.88664 38.0217 15.0399 38.0217 21.3383C38.0217 27.675 32.837 32.7901 26.4616 32.7901ZM41.2094 36.989L36.2935 45.5396L28.3051 43.7455L38.0217 66L43.3986 57.6021H53L41.2094 36.989ZM11.637 37.2562L16.4377 45.845L24.6181 43.8982L14.9783 66L9.60145 57.6021H0L11.637 37.2562Z" fill="#0DACCE"/>
</svg>
