<svg width="67" height="67" viewBox="0 0 67 67" fill="none" xmlns="http://www.w3.org/2000/svg">
<path d="M57.1881 9.8119C50.8603 3.48464 42.448 0 33.5 0C24.552 0 16.1392 3.48464 9.8119 9.8119C3.48464 16.1392 0 24.552 0 33.5C0 42.448 3.48464 50.8608 9.8119 57.1881C16.1392 63.5154 24.552 67 33.5 67C42.448 67 50.8603 63.5154 57.1881 57.1881C63.5154 50.8608 67 42.448 67 33.5C67 24.552 63.5154 16.1392 57.1881 9.8119ZM63.0742 33.5C63.0742 34.1599 63.0502 34.8137 63.0073 35.4629H54.5249C53.4407 35.4629 52.562 34.5842 52.562 33.5C52.562 32.4158 53.4407 31.5371 54.5249 31.5371H63.0073C63.0502 32.1863 63.0742 32.8401 63.0742 33.5ZM33.9411 37.8419C33.4157 37.8419 33.0164 37.4846 33.0164 36.8747C33.0164 36.7066 33.0578 36.5174 33.1631 36.3278L38.1465 26.5297C38.399 26.0042 38.8611 25.8146 39.3028 25.8146C39.7864 25.8146 40.6697 26.2353 40.6697 26.866C40.6697 26.9713 40.6272 27.0976 40.5644 27.2239L36.5271 35.2978H38.9869V33.09C38.9869 32.4802 39.6811 32.2277 40.3543 32.2277C41.0479 32.2277 41.7206 32.4802 41.7206 33.09V35.2978H42.7087C43.2766 35.2978 43.5711 35.9286 43.5711 36.5803C43.5711 37.2111 43.1504 37.8419 42.7087 37.8419H41.7206V40.3231C41.7206 40.8905 41.0479 41.1849 40.3543 41.1849C39.6811 41.1849 38.9869 40.8905 38.9869 40.3231V37.8419H33.9411ZM58.0658 17.0506C58.7937 18.1342 59.451 19.269 60.0333 20.4478L57.2418 22.0595C56.9325 22.2379 56.5951 22.3228 56.2619 22.3228C55.5835 22.3228 54.9241 21.9706 54.5602 21.3408C54.0183 20.4018 54.3399 19.2016 55.2789 18.6597L58.0658 17.0506ZM46.5522 6.96724C47.731 7.54895 48.8658 8.20631 49.9494 8.93473L48.3403 11.7216C47.9773 12.3514 47.3174 12.7031 46.6386 12.7031C46.3058 12.7031 45.9684 12.6182 45.6592 12.4398C44.7202 11.898 44.3986 10.6972 44.941 9.75874L46.5522 6.96724ZM44.941 57.2413C44.3986 56.3022 44.7202 55.102 45.6592 54.5602C46.5982 54.0178 47.7984 54.3399 48.3403 55.2784L49.9494 58.0653C48.8658 58.7937 47.731 59.451 46.5522 60.0328L44.941 57.2413ZM55.2789 48.3403C54.3399 47.7984 54.0183 46.5982 54.5602 45.6592C55.1025 44.7202 56.3028 44.3981 57.2418 44.941L60.0333 46.5522C59.451 47.731 58.7937 48.8658 58.0658 49.9494L55.2789 48.3403ZM35.4629 3.99274V12.4751C35.4629 13.5593 34.5842 14.438 33.5 14.438C32.4163 14.438 31.5371 13.5593 31.5371 12.4751V3.99274C32.1863 3.94981 32.8406 3.92578 33.5 3.92578C34.1594 3.92578 34.8137 3.94981 35.4629 3.99274ZM3.92578 33.5C3.92578 32.8401 3.94981 32.1863 3.99274 31.5371H12.4756C13.5593 31.5371 14.4385 32.4158 14.4385 33.5C14.4385 34.5842 13.5593 35.4629 12.4756 35.4629H3.99274C3.94981 34.8137 3.92578 34.1599 3.92578 33.5ZM22.0595 9.75822C22.6014 10.6972 22.2798 11.898 21.3413 12.4398C21.0321 12.6182 20.6947 12.7031 20.3614 12.7031C19.6826 12.7031 19.0232 12.3514 18.6597 11.7211L17.0506 8.93422C18.1342 8.20631 19.2696 7.54895 20.4478 6.96673L22.0595 9.75822ZM11.7211 18.6597C12.6601 19.2016 12.9817 20.4018 12.4398 21.3408C12.0764 21.9706 11.4165 22.3228 10.7381 22.3228C10.4049 22.3228 10.0675 22.2379 9.75874 22.0595L6.96673 20.4478C7.54895 19.269 8.20631 18.1342 8.93422 17.0506L11.7211 18.6597ZM9.75874 44.9405C10.6972 44.3986 11.898 44.7202 12.4398 45.6587C12.9817 46.5977 12.6601 47.7984 11.7216 48.3403L8.93422 49.9494C8.20631 48.8658 7.54895 47.731 6.96673 46.5522L9.75874 44.9405ZM18.6602 55.2789C19.2021 54.3399 20.4023 54.0178 21.3413 54.5602C22.2803 55.102 22.6019 56.3028 22.0595 57.2418L20.4483 60.0333C19.2696 59.451 18.1342 58.7937 17.0511 58.0658L18.6602 55.2789ZM23.4289 40.3231V38.2835C23.4289 34.919 30.1989 33.132 30.1989 30.1672C30.1989 29.3053 29.6315 28.2958 28.2436 28.2958C27.2136 28.2958 26.3723 28.8427 26.3723 30.1462C26.3723 30.6513 25.8468 31.1558 24.9425 31.1558C24.2279 31.1558 23.7019 30.8194 23.7019 29.6841C23.7019 27.2867 25.8892 25.8151 28.2227 25.8151C30.662 25.8151 32.9326 27.4135 32.9326 30.0833C32.9326 34.6251 26.267 36.0967 26.267 38.2835V38.788H32.1127C32.5748 38.788 32.9745 39.335 32.9745 39.9658C32.9745 40.5961 32.5748 41.1849 32.1127 41.1849H24.6271C24.1441 41.1849 23.4289 40.8486 23.4289 40.3231ZM31.5371 63.0073V54.5244C31.5371 53.4407 32.4163 52.5615 33.5 52.5615C34.5842 52.5615 35.4629 53.4407 35.4629 54.5244V63.0073C34.8137 63.0502 34.1594 63.0742 33.5 63.0742C32.8406 63.0742 32.1863 63.0502 31.5371 63.0073Z" fill="#0DACCE"/>
</svg>
