<svg width="67" height="67" viewBox="0 0 67 67" fill="none" xmlns="http://www.w3.org/2000/svg">
<path d="M33.4996 0C26.2803 0 20.4084 5.87344 20.4084 13.0928V19.8758C20.4084 27.0957 26.2803 32.9691 33.4996 32.9691C40.7195 32.9691 46.5908 27.0957 46.5908 19.8758V13.0928C46.5909 5.87344 40.7195 0 33.4996 0Z" fill="#0DACCE"/>
<path d="M62.3716 50.0304C58.1796 42.8866 51.4791 37.5905 43.5046 35.1174C43.3196 35.06 43.1197 35.1088 42.982 35.2449C39.2723 38.9026 34.6628 41.7562 33.5104 42.4455C32.2803 41.6592 27.0988 38.2819 24.0184 35.2449C23.8812 35.1088 23.6797 35.06 23.4958 35.1174C15.5202 37.591 8.82027 42.8872 4.62985 50.0309C4.53391 50.1944 4.53391 50.3975 4.62985 50.561C10.5805 60.701 21.6429 67 33.5002 67C45.358 67 56.421 60.701 62.3716 50.561C62.4681 50.397 62.4681 50.1939 62.3716 50.0304ZM51.3054 53.9357C51.3054 54.2246 51.0305 54.4454 50.7421 54.4454H47.1965C46.9076 54.4454 46.5924 54.6936 46.5924 54.983V58.6497C46.5924 58.9381 46.4381 59.1584 46.1492 59.1584H42.9648C42.6759 59.1584 42.4036 58.9381 42.4036 58.6497V54.983C42.4026 54.6941 42.2053 54.4454 41.9164 54.4454H38.218C37.9291 54.4454 37.6901 54.224 37.6901 53.9357V50.7786C37.6901 50.4897 37.9291 50.2566 38.218 50.2566H41.9164C42.2053 50.2566 42.4026 50.0207 42.4026 49.7313V46.0603C42.4026 45.7714 42.6748 45.5436 42.9637 45.5436H46.1138C46.4022 45.5436 46.5919 45.7714 46.5919 46.0603V49.742C46.5919 50.0315 46.8717 50.256 47.1611 50.256H50.7421C51.0305 50.256 51.3054 50.5005 51.3054 50.7894V53.9357Z" fill="#0DACCE"/>
</svg>
