<svg width="58" height="68" viewBox="0 0 58 68" fill="none" xmlns="http://www.w3.org/2000/svg">
<path d="M29.0003 0C16.0693 0 5.54868 8.92074 5.54868 19.8862V31.2437C5.54868 31.3727 5.36085 31.5902 5.21331 31.6318C3.94512 31.9904 2.91517 32.3011 1.97235 32.6093C0.848015 32.9769 0 34.0335 0 35.0671V61.1635C0 62.19 0.842535 63.2475 1.95975 63.623C10.6039 66.5276 19.7016 68 29.0002 68C38.2988 68 47.3965 66.5272 56.0411 63.6226C57.1579 63.2473 58 62.19 58 61.1635V35.0671C58 34.0335 57.1521 32.9769 56.0272 32.609C55.084 32.3008 54.0542 31.99 52.787 31.6314C52.6398 31.5898 52.452 31.3723 52.452 31.2432V19.8858C52.4513 8.92073 41.9314 0 29.0003 0ZM22.6127 43.0152C22.6127 40.0216 25.4725 37.5991 28.9999 37.5991C32.5271 37.5991 35.3869 40.0214 35.3869 43.0152C35.3869 44.9988 34.0677 46.6595 32.1933 47.601V56.5554C32.1933 58.0523 30.765 59.2634 28.9998 59.2634C27.2344 59.2634 25.8062 58.0523 25.8062 56.5554V47.601C23.932 46.6595 22.6127 44.9988 22.6127 43.0152ZM44.3881 19.8858V29.6853C39.3419 28.7645 34.1649 28.2982 29.0024 28.2978C23.8422 28.2978 18.6663 28.7643 13.6124 29.6842V19.8858C13.6124 12.6909 20.5151 6.83771 28.9999 6.83771C37.4846 6.83759 44.3881 12.6909 44.3881 19.8858Z" fill="#0DACCE"/>
</svg>
